%TF.GenerationSoftware,KiCad,Pcbnew,(5.1.8)-1*%
%TF.CreationDate,2021-03-21T23:47:40-07:00*%
%TF.ProjectId,rls2hd-bob,726c7332-6864-42d6-926f-622e6b696361,rev?*%
%TF.SameCoordinates,Original*%
%TF.FileFunction,Copper,L1,Top*%
%TF.FilePolarity,Positive*%
%FSLAX46Y46*%
G04 Gerber Fmt 4.6, Leading zero omitted, Abs format (unit mm)*
G04 Created by KiCad (PCBNEW (5.1.8)-1) date 2021-03-21 23:47:40*
%MOMM*%
%LPD*%
G01*
G04 APERTURE LIST*
%TA.AperFunction,ComponentPad*%
%ADD10C,2.000000*%
%TD*%
%TA.AperFunction,ComponentPad*%
%ADD11O,1.700000X1.700000*%
%TD*%
%TA.AperFunction,ComponentPad*%
%ADD12R,1.700000X1.700000*%
%TD*%
%TA.AperFunction,ViaPad*%
%ADD13C,0.800000*%
%TD*%
%TA.AperFunction,ViaPad*%
%ADD14C,5.000000*%
%TD*%
%TA.AperFunction,Conductor*%
%ADD15C,0.500000*%
%TD*%
%TA.AperFunction,Conductor*%
%ADD16C,0.250000*%
%TD*%
%TA.AperFunction,Conductor*%
%ADD17C,0.254000*%
%TD*%
%TA.AperFunction,Conductor*%
%ADD18C,0.100000*%
%TD*%
G04 APERTURE END LIST*
%TO.P,C1,2*%
%TO.N,GND*%
%TA.AperFunction,SMDPad,CuDef*%
G36*
G01*
X106050000Y-88025000D02*
X106050000Y-88975000D01*
G75*
G02*
X105800000Y-89225000I-250000J0D01*
G01*
X105300000Y-89225000D01*
G75*
G02*
X105050000Y-88975000I0J250000D01*
G01*
X105050000Y-88025000D01*
G75*
G02*
X105300000Y-87775000I250000J0D01*
G01*
X105800000Y-87775000D01*
G75*
G02*
X106050000Y-88025000I0J-250000D01*
G01*
G37*
%TD.AperFunction*%
%TO.P,C1,1*%
%TO.N,+5V*%
%TA.AperFunction,SMDPad,CuDef*%
G36*
G01*
X107950000Y-88025000D02*
X107950000Y-88975000D01*
G75*
G02*
X107700000Y-89225000I-250000J0D01*
G01*
X107200000Y-89225000D01*
G75*
G02*
X106950000Y-88975000I0J250000D01*
G01*
X106950000Y-88025000D01*
G75*
G02*
X107200000Y-87775000I250000J0D01*
G01*
X107700000Y-87775000D01*
G75*
G02*
X107950000Y-88025000I0J-250000D01*
G01*
G37*
%TD.AperFunction*%
%TD*%
D10*
%TO.P,U1,*%
%TO.N,*%
X101900000Y-88600000D03*
X98100000Y-88600000D03*
%TO.P,U1,4*%
%TO.N,N/C*%
%TA.AperFunction,SMDPad,CuDef*%
G36*
G01*
X97250000Y-90300000D02*
X97250000Y-90900000D01*
G75*
G02*
X97050000Y-91100000I-200000J0D01*
G01*
X95950000Y-91100000D01*
G75*
G02*
X95750000Y-90900000I0J200000D01*
G01*
X95750000Y-90300000D01*
G75*
G02*
X95950000Y-90100000I200000J0D01*
G01*
X97050000Y-90100000D01*
G75*
G02*
X97250000Y-90300000I0J-200000D01*
G01*
G37*
%TD.AperFunction*%
%TO.P,U1,8*%
%TO.N,Net-(J1-Pad2)*%
%TA.AperFunction,SMDPad,CuDef*%
G36*
G01*
X97250000Y-96800000D02*
X97250000Y-97400000D01*
G75*
G02*
X97050000Y-97600000I-200000J0D01*
G01*
X95950000Y-97600000D01*
G75*
G02*
X95750000Y-97400000I0J200000D01*
G01*
X95750000Y-96800000D01*
G75*
G02*
X95950000Y-96600000I200000J0D01*
G01*
X97050000Y-96600000D01*
G75*
G02*
X97250000Y-96800000I0J-200000D01*
G01*
G37*
%TD.AperFunction*%
%TO.P,U1,7*%
%TO.N,Net-(J1-Pad3)*%
%TA.AperFunction,SMDPad,CuDef*%
G36*
G01*
X97250000Y-95300000D02*
X97250000Y-95900000D01*
G75*
G02*
X97050000Y-96100000I-200000J0D01*
G01*
X95950000Y-96100000D01*
G75*
G02*
X95750000Y-95900000I0J200000D01*
G01*
X95750000Y-95300000D01*
G75*
G02*
X95950000Y-95100000I200000J0D01*
G01*
X97050000Y-95100000D01*
G75*
G02*
X97250000Y-95300000I0J-200000D01*
G01*
G37*
%TD.AperFunction*%
%TO.P,U1,6*%
%TO.N,Net-(J1-Pad4)*%
%TA.AperFunction,SMDPad,CuDef*%
G36*
G01*
X97250000Y-93800000D02*
X97250000Y-94400000D01*
G75*
G02*
X97050000Y-94600000I-200000J0D01*
G01*
X95950000Y-94600000D01*
G75*
G02*
X95750000Y-94400000I0J200000D01*
G01*
X95750000Y-93800000D01*
G75*
G02*
X95950000Y-93600000I200000J0D01*
G01*
X97050000Y-93600000D01*
G75*
G02*
X97250000Y-93800000I0J-200000D01*
G01*
G37*
%TD.AperFunction*%
%TO.P,U1,5*%
%TO.N,N/C*%
%TA.AperFunction,SMDPad,CuDef*%
G36*
G01*
X97250000Y-92300000D02*
X97250000Y-92900000D01*
G75*
G02*
X97050000Y-93100000I-200000J0D01*
G01*
X95950000Y-93100000D01*
G75*
G02*
X95750000Y-92900000I0J200000D01*
G01*
X95750000Y-92300000D01*
G75*
G02*
X95950000Y-92100000I200000J0D01*
G01*
X97050000Y-92100000D01*
G75*
G02*
X97250000Y-92300000I0J-200000D01*
G01*
G37*
%TD.AperFunction*%
%TO.P,U1,1*%
%TO.N,+5V*%
%TA.AperFunction,SMDPad,CuDef*%
G36*
G01*
X104250000Y-95600000D02*
X104250000Y-96200000D01*
G75*
G02*
X104050000Y-96400000I-200000J0D01*
G01*
X102950000Y-96400000D01*
G75*
G02*
X102750000Y-96200000I0J200000D01*
G01*
X102750000Y-95600000D01*
G75*
G02*
X102950000Y-95400000I200000J0D01*
G01*
X104050000Y-95400000D01*
G75*
G02*
X104250000Y-95600000I0J-200000D01*
G01*
G37*
%TD.AperFunction*%
%TO.P,U1,2*%
%TA.AperFunction,SMDPad,CuDef*%
G36*
G01*
X104250000Y-94100000D02*
X104250000Y-94700000D01*
G75*
G02*
X104050000Y-94900000I-200000J0D01*
G01*
X102950000Y-94900000D01*
G75*
G02*
X102750000Y-94700000I0J200000D01*
G01*
X102750000Y-94100000D01*
G75*
G02*
X102950000Y-93900000I200000J0D01*
G01*
X104050000Y-93900000D01*
G75*
G02*
X104250000Y-94100000I0J-200000D01*
G01*
G37*
%TD.AperFunction*%
%TO.P,U1,3*%
%TO.N,GND*%
%TA.AperFunction,SMDPad,CuDef*%
G36*
G01*
X104250000Y-92600000D02*
X104250000Y-93200000D01*
G75*
G02*
X104050000Y-93400000I-200000J0D01*
G01*
X102950000Y-93400000D01*
G75*
G02*
X102750000Y-93200000I0J200000D01*
G01*
X102750000Y-92600000D01*
G75*
G02*
X102950000Y-92400000I200000J0D01*
G01*
X104050000Y-92400000D01*
G75*
G02*
X104250000Y-92600000I0J-200000D01*
G01*
G37*
%TD.AperFunction*%
%TD*%
D11*
%TO.P,J1,5*%
%TO.N,GND*%
X105080000Y-80000000D03*
%TO.P,J1,4*%
%TO.N,Net-(J1-Pad4)*%
X102540000Y-80000000D03*
%TO.P,J1,3*%
%TO.N,Net-(J1-Pad3)*%
X100000000Y-80000000D03*
%TO.P,J1,2*%
%TO.N,Net-(J1-Pad2)*%
X97460000Y-80000000D03*
D12*
%TO.P,J1,1*%
%TO.N,+5V*%
X94920000Y-80000000D03*
%TD*%
D13*
%TO.N,*%
X96500000Y-90600000D03*
X96500000Y-92600000D03*
D14*
%TO.N,GND*%
X111000000Y-74000000D03*
X111000000Y-96000000D03*
X89000000Y-96000000D03*
X89000000Y-74000000D03*
%TD*%
D15*
%TO.N,+5V*%
X94920000Y-80000000D02*
X94920000Y-79080000D01*
X94920000Y-79080000D02*
X96500000Y-77500000D01*
X96500000Y-77500000D02*
X106500000Y-77500000D01*
X107450000Y-78450000D02*
X107450000Y-85500000D01*
X106500000Y-77500000D02*
X107450000Y-78450000D01*
X107450000Y-85500000D02*
X107450000Y-92800000D01*
X104350000Y-95900000D02*
X103500000Y-95900000D01*
X107450000Y-92800000D02*
X104350000Y-95900000D01*
X105850000Y-94400000D02*
X103500000Y-94400000D01*
X105875000Y-94375000D02*
X105850000Y-94400000D01*
D16*
%TO.N,Net-(J1-Pad4)*%
X95000000Y-93500000D02*
X95600000Y-94100000D01*
X95000000Y-89000000D02*
X95000000Y-93500000D01*
X102540000Y-81460000D02*
X95000000Y-89000000D01*
X95600000Y-94100000D02*
X96500000Y-94100000D01*
X102540000Y-80000000D02*
X102540000Y-81460000D01*
%TO.N,Net-(J1-Pad3)*%
X95600000Y-95600000D02*
X96500000Y-95600000D01*
X94500000Y-94500000D02*
X95600000Y-95600000D01*
X94500000Y-88500000D02*
X94500000Y-94500000D01*
X100000000Y-83000000D02*
X94500000Y-88500000D01*
X100000000Y-80000000D02*
X100000000Y-83000000D01*
%TO.N,Net-(J1-Pad2)*%
X94000000Y-95500000D02*
X95600000Y-97100000D01*
X94000000Y-87920000D02*
X94000000Y-95500000D01*
X97460000Y-84460000D02*
X94000000Y-87920000D01*
X95600000Y-97100000D02*
X96500000Y-97100000D01*
X97460000Y-80000000D02*
X97460000Y-84460000D01*
%TD*%
D17*
%TO.N,GND*%
X111648126Y-70726714D02*
X112271572Y-70914943D01*
X112846579Y-71220681D01*
X113351247Y-71632279D01*
X113766362Y-72134067D01*
X114076105Y-72706924D01*
X114268682Y-73329039D01*
X114340001Y-74007594D01*
X114340000Y-95967721D01*
X114273286Y-96648126D01*
X114085057Y-97271570D01*
X113779323Y-97846573D01*
X113367721Y-98351248D01*
X112865933Y-98766362D01*
X112293077Y-99076104D01*
X111670961Y-99268682D01*
X110992417Y-99340000D01*
X89032279Y-99340000D01*
X88351874Y-99273286D01*
X87728430Y-99085057D01*
X87153427Y-98779323D01*
X86648752Y-98367721D01*
X86233638Y-97865933D01*
X85923896Y-97293077D01*
X85731318Y-96670961D01*
X85660000Y-95992417D01*
X85660000Y-87920000D01*
X93236324Y-87920000D01*
X93240000Y-87957322D01*
X93240001Y-95462668D01*
X93236324Y-95500000D01*
X93250998Y-95648985D01*
X93294454Y-95792246D01*
X93365026Y-95924276D01*
X93421490Y-95993077D01*
X93460000Y-96040001D01*
X93488998Y-96063799D01*
X95036201Y-97611003D01*
X95059999Y-97640001D01*
X95175724Y-97734974D01*
X95186391Y-97740676D01*
X95253169Y-97865608D01*
X95357394Y-97992606D01*
X95484392Y-98096831D01*
X95629284Y-98174278D01*
X95786500Y-98221969D01*
X95950000Y-98238072D01*
X97050000Y-98238072D01*
X97213500Y-98221969D01*
X97370716Y-98174278D01*
X97515608Y-98096831D01*
X97642606Y-97992606D01*
X97746831Y-97865608D01*
X97824278Y-97720716D01*
X97871969Y-97563500D01*
X97888072Y-97400000D01*
X97888072Y-96800000D01*
X97871969Y-96636500D01*
X97824278Y-96479284D01*
X97755174Y-96350000D01*
X97824278Y-96220716D01*
X97871969Y-96063500D01*
X97888072Y-95900000D01*
X97888072Y-95300000D01*
X97871969Y-95136500D01*
X97824278Y-94979284D01*
X97755174Y-94850000D01*
X97824278Y-94720716D01*
X97871969Y-94563500D01*
X97888072Y-94400000D01*
X97888072Y-93800000D01*
X97871969Y-93636500D01*
X97824278Y-93479284D01*
X97755174Y-93350000D01*
X97824278Y-93220716D01*
X97871969Y-93063500D01*
X97888072Y-92900000D01*
X97888072Y-92400000D01*
X102111928Y-92400000D01*
X102115000Y-92614250D01*
X102273750Y-92773000D01*
X103373000Y-92773000D01*
X103373000Y-91923750D01*
X103627000Y-91923750D01*
X103627000Y-92773000D01*
X104726250Y-92773000D01*
X104885000Y-92614250D01*
X104888072Y-92400000D01*
X104875812Y-92275518D01*
X104839502Y-92155820D01*
X104780537Y-92045506D01*
X104701185Y-91948815D01*
X104604494Y-91869463D01*
X104494180Y-91810498D01*
X104374482Y-91774188D01*
X104250000Y-91761928D01*
X103785750Y-91765000D01*
X103627000Y-91923750D01*
X103373000Y-91923750D01*
X103214250Y-91765000D01*
X102750000Y-91761928D01*
X102625518Y-91774188D01*
X102505820Y-91810498D01*
X102395506Y-91869463D01*
X102298815Y-91948815D01*
X102219463Y-92045506D01*
X102160498Y-92155820D01*
X102124188Y-92275518D01*
X102111928Y-92400000D01*
X97888072Y-92400000D01*
X97888072Y-92300000D01*
X97871969Y-92136500D01*
X97824278Y-91979284D01*
X97746831Y-91834392D01*
X97642606Y-91707394D01*
X97515608Y-91603169D01*
X97509679Y-91600000D01*
X97515608Y-91596831D01*
X97642606Y-91492606D01*
X97746831Y-91365608D01*
X97824278Y-91220716D01*
X97871969Y-91063500D01*
X97888072Y-90900000D01*
X97888072Y-90300000D01*
X97880525Y-90223375D01*
X97938967Y-90235000D01*
X98261033Y-90235000D01*
X98576912Y-90172168D01*
X98874463Y-90048918D01*
X99142252Y-89869987D01*
X99369987Y-89642252D01*
X99548918Y-89374463D01*
X99672168Y-89076912D01*
X99735000Y-88761033D01*
X99735000Y-88438967D01*
X100265000Y-88438967D01*
X100265000Y-88761033D01*
X100327832Y-89076912D01*
X100451082Y-89374463D01*
X100630013Y-89642252D01*
X100857748Y-89869987D01*
X101125537Y-90048918D01*
X101423088Y-90172168D01*
X101738967Y-90235000D01*
X102061033Y-90235000D01*
X102376912Y-90172168D01*
X102674463Y-90048918D01*
X102942252Y-89869987D01*
X103169987Y-89642252D01*
X103348918Y-89374463D01*
X103410827Y-89225000D01*
X104411928Y-89225000D01*
X104424188Y-89349482D01*
X104460498Y-89469180D01*
X104519463Y-89579494D01*
X104598815Y-89676185D01*
X104695506Y-89755537D01*
X104805820Y-89814502D01*
X104925518Y-89850812D01*
X105050000Y-89863072D01*
X105264250Y-89860000D01*
X105423000Y-89701250D01*
X105423000Y-88627000D01*
X104573750Y-88627000D01*
X104415000Y-88785750D01*
X104411928Y-89225000D01*
X103410827Y-89225000D01*
X103472168Y-89076912D01*
X103535000Y-88761033D01*
X103535000Y-88438967D01*
X103472168Y-88123088D01*
X103348918Y-87825537D01*
X103315151Y-87775000D01*
X104411928Y-87775000D01*
X104415000Y-88214250D01*
X104573750Y-88373000D01*
X105423000Y-88373000D01*
X105423000Y-87298750D01*
X105264250Y-87140000D01*
X105050000Y-87136928D01*
X104925518Y-87149188D01*
X104805820Y-87185498D01*
X104695506Y-87244463D01*
X104598815Y-87323815D01*
X104519463Y-87420506D01*
X104460498Y-87530820D01*
X104424188Y-87650518D01*
X104411928Y-87775000D01*
X103315151Y-87775000D01*
X103169987Y-87557748D01*
X102942252Y-87330013D01*
X102674463Y-87151082D01*
X102376912Y-87027832D01*
X102061033Y-86965000D01*
X101738967Y-86965000D01*
X101423088Y-87027832D01*
X101125537Y-87151082D01*
X100857748Y-87330013D01*
X100630013Y-87557748D01*
X100451082Y-87825537D01*
X100327832Y-88123088D01*
X100265000Y-88438967D01*
X99735000Y-88438967D01*
X99672168Y-88123088D01*
X99548918Y-87825537D01*
X99369987Y-87557748D01*
X99142252Y-87330013D01*
X98874463Y-87151082D01*
X98576912Y-87027832D01*
X98261033Y-86965000D01*
X98109801Y-86965000D01*
X103051003Y-82023799D01*
X103080001Y-82000001D01*
X103174974Y-81884276D01*
X103245546Y-81752247D01*
X103289003Y-81608986D01*
X103300000Y-81497333D01*
X103300000Y-81497324D01*
X103303676Y-81460001D01*
X103300000Y-81422678D01*
X103300000Y-81278178D01*
X103486632Y-81153475D01*
X103693475Y-80946632D01*
X103815195Y-80764466D01*
X103884822Y-80881355D01*
X104079731Y-81097588D01*
X104313080Y-81271641D01*
X104575901Y-81396825D01*
X104723110Y-81441476D01*
X104953000Y-81320155D01*
X104953000Y-80127000D01*
X105207000Y-80127000D01*
X105207000Y-81320155D01*
X105436890Y-81441476D01*
X105584099Y-81396825D01*
X105846920Y-81271641D01*
X106080269Y-81097588D01*
X106275178Y-80881355D01*
X106424157Y-80631252D01*
X106521481Y-80356891D01*
X106400814Y-80127000D01*
X105207000Y-80127000D01*
X104953000Y-80127000D01*
X104933000Y-80127000D01*
X104933000Y-79873000D01*
X104953000Y-79873000D01*
X104953000Y-78679845D01*
X105207000Y-78679845D01*
X105207000Y-79873000D01*
X106400814Y-79873000D01*
X106521481Y-79643109D01*
X106424157Y-79368748D01*
X106275178Y-79118645D01*
X106080269Y-78902412D01*
X105846920Y-78728359D01*
X105584099Y-78603175D01*
X105436890Y-78558524D01*
X105207000Y-78679845D01*
X104953000Y-78679845D01*
X104723110Y-78558524D01*
X104575901Y-78603175D01*
X104313080Y-78728359D01*
X104079731Y-78902412D01*
X103884822Y-79118645D01*
X103815195Y-79235534D01*
X103693475Y-79053368D01*
X103486632Y-78846525D01*
X103243411Y-78684010D01*
X102973158Y-78572068D01*
X102686260Y-78515000D01*
X102393740Y-78515000D01*
X102106842Y-78572068D01*
X101836589Y-78684010D01*
X101593368Y-78846525D01*
X101386525Y-79053368D01*
X101270000Y-79227760D01*
X101153475Y-79053368D01*
X100946632Y-78846525D01*
X100703411Y-78684010D01*
X100433158Y-78572068D01*
X100146260Y-78515000D01*
X99853740Y-78515000D01*
X99566842Y-78572068D01*
X99296589Y-78684010D01*
X99053368Y-78846525D01*
X98846525Y-79053368D01*
X98730000Y-79227760D01*
X98613475Y-79053368D01*
X98406632Y-78846525D01*
X98163411Y-78684010D01*
X97893158Y-78572068D01*
X97606260Y-78515000D01*
X97313740Y-78515000D01*
X97026842Y-78572068D01*
X96756589Y-78684010D01*
X96513368Y-78846525D01*
X96381513Y-78978380D01*
X96359502Y-78905820D01*
X96354715Y-78896864D01*
X96866579Y-78385000D01*
X106133422Y-78385000D01*
X106565000Y-78816579D01*
X106565001Y-85456514D01*
X106565000Y-85456524D01*
X106565000Y-87401574D01*
X106501185Y-87323815D01*
X106404494Y-87244463D01*
X106294180Y-87185498D01*
X106174482Y-87149188D01*
X106050000Y-87136928D01*
X105835750Y-87140000D01*
X105677000Y-87298750D01*
X105677000Y-88373000D01*
X105697000Y-88373000D01*
X105697000Y-88627000D01*
X105677000Y-88627000D01*
X105677000Y-89701250D01*
X105835750Y-89860000D01*
X106050000Y-89863072D01*
X106174482Y-89850812D01*
X106294180Y-89814502D01*
X106404494Y-89755537D01*
X106501185Y-89676185D01*
X106565001Y-89598425D01*
X106565001Y-92433420D01*
X105483421Y-93515000D01*
X104876746Y-93515000D01*
X104888072Y-93400000D01*
X104885000Y-93185750D01*
X104726250Y-93027000D01*
X103627000Y-93027000D01*
X103627000Y-93047000D01*
X103373000Y-93047000D01*
X103373000Y-93027000D01*
X102273750Y-93027000D01*
X102115000Y-93185750D01*
X102111928Y-93400000D01*
X102124188Y-93524482D01*
X102160498Y-93644180D01*
X102204218Y-93725973D01*
X102175722Y-93779284D01*
X102128031Y-93936500D01*
X102111928Y-94100000D01*
X102111928Y-94700000D01*
X102128031Y-94863500D01*
X102175722Y-95020716D01*
X102244826Y-95150000D01*
X102175722Y-95279284D01*
X102128031Y-95436500D01*
X102111928Y-95600000D01*
X102111928Y-96200000D01*
X102128031Y-96363500D01*
X102175722Y-96520716D01*
X102253169Y-96665608D01*
X102357394Y-96792606D01*
X102484392Y-96896831D01*
X102629284Y-96974278D01*
X102786500Y-97021969D01*
X102950000Y-97038072D01*
X104050000Y-97038072D01*
X104213500Y-97021969D01*
X104370716Y-96974278D01*
X104515608Y-96896831D01*
X104642606Y-96792606D01*
X104709152Y-96711519D01*
X104844059Y-96639411D01*
X104978817Y-96528817D01*
X105006534Y-96495044D01*
X106445046Y-95056532D01*
X106478817Y-95028817D01*
X106506532Y-94995047D01*
X108045049Y-93456530D01*
X108078817Y-93428817D01*
X108107019Y-93394454D01*
X108189410Y-93294060D01*
X108206585Y-93261928D01*
X108271589Y-93140313D01*
X108322195Y-92973490D01*
X108335000Y-92843477D01*
X108335000Y-92843467D01*
X108339281Y-92800001D01*
X108335000Y-92756534D01*
X108335000Y-89594386D01*
X108438405Y-89468386D01*
X108520472Y-89314850D01*
X108571008Y-89148254D01*
X108588072Y-88975000D01*
X108588072Y-88025000D01*
X108571008Y-87851746D01*
X108520472Y-87685150D01*
X108438405Y-87531614D01*
X108335000Y-87405614D01*
X108335000Y-78493469D01*
X108339281Y-78450000D01*
X108335000Y-78406531D01*
X108335000Y-78406523D01*
X108322195Y-78276510D01*
X108271589Y-78109687D01*
X108189411Y-77955941D01*
X108078817Y-77821183D01*
X108045050Y-77793471D01*
X107156534Y-76904956D01*
X107128817Y-76871183D01*
X106994059Y-76760589D01*
X106840313Y-76678411D01*
X106673490Y-76627805D01*
X106543477Y-76615000D01*
X106543469Y-76615000D01*
X106500000Y-76610719D01*
X106456531Y-76615000D01*
X96543465Y-76615000D01*
X96499999Y-76610719D01*
X96456533Y-76615000D01*
X96456523Y-76615000D01*
X96326510Y-76627805D01*
X96159687Y-76678411D01*
X96005941Y-76760589D01*
X96005939Y-76760590D01*
X96005940Y-76760590D01*
X95904953Y-76843468D01*
X95904951Y-76843470D01*
X95871183Y-76871183D01*
X95843470Y-76904951D01*
X94324951Y-78423471D01*
X94291184Y-78451183D01*
X94263471Y-78484951D01*
X94263468Y-78484954D01*
X94241331Y-78511928D01*
X94070000Y-78511928D01*
X93945518Y-78524188D01*
X93825820Y-78560498D01*
X93715506Y-78619463D01*
X93618815Y-78698815D01*
X93539463Y-78795506D01*
X93480498Y-78905820D01*
X93444188Y-79025518D01*
X93431928Y-79150000D01*
X93431928Y-80850000D01*
X93444188Y-80974482D01*
X93480498Y-81094180D01*
X93539463Y-81204494D01*
X93618815Y-81301185D01*
X93715506Y-81380537D01*
X93825820Y-81439502D01*
X93945518Y-81475812D01*
X94070000Y-81488072D01*
X95770000Y-81488072D01*
X95894482Y-81475812D01*
X96014180Y-81439502D01*
X96124494Y-81380537D01*
X96221185Y-81301185D01*
X96300537Y-81204494D01*
X96359502Y-81094180D01*
X96381513Y-81021620D01*
X96513368Y-81153475D01*
X96700000Y-81278179D01*
X96700001Y-84145197D01*
X93489003Y-87356196D01*
X93459999Y-87379999D01*
X93404871Y-87447174D01*
X93365026Y-87495724D01*
X93294455Y-87627753D01*
X93294454Y-87627754D01*
X93250997Y-87771015D01*
X93240000Y-87882668D01*
X93240000Y-87882678D01*
X93236324Y-87920000D01*
X85660000Y-87920000D01*
X85660000Y-74032278D01*
X85726714Y-73351874D01*
X85914943Y-72728428D01*
X86220681Y-72153421D01*
X86632279Y-71648753D01*
X87134067Y-71233638D01*
X87706924Y-70923895D01*
X88329039Y-70731318D01*
X89007584Y-70660000D01*
X110967722Y-70660000D01*
X111648126Y-70726714D01*
%TA.AperFunction,Conductor*%
D18*
G36*
X111648126Y-70726714D02*
G01*
X112271572Y-70914943D01*
X112846579Y-71220681D01*
X113351247Y-71632279D01*
X113766362Y-72134067D01*
X114076105Y-72706924D01*
X114268682Y-73329039D01*
X114340001Y-74007594D01*
X114340000Y-95967721D01*
X114273286Y-96648126D01*
X114085057Y-97271570D01*
X113779323Y-97846573D01*
X113367721Y-98351248D01*
X112865933Y-98766362D01*
X112293077Y-99076104D01*
X111670961Y-99268682D01*
X110992417Y-99340000D01*
X89032279Y-99340000D01*
X88351874Y-99273286D01*
X87728430Y-99085057D01*
X87153427Y-98779323D01*
X86648752Y-98367721D01*
X86233638Y-97865933D01*
X85923896Y-97293077D01*
X85731318Y-96670961D01*
X85660000Y-95992417D01*
X85660000Y-87920000D01*
X93236324Y-87920000D01*
X93240000Y-87957322D01*
X93240001Y-95462668D01*
X93236324Y-95500000D01*
X93250998Y-95648985D01*
X93294454Y-95792246D01*
X93365026Y-95924276D01*
X93421490Y-95993077D01*
X93460000Y-96040001D01*
X93488998Y-96063799D01*
X95036201Y-97611003D01*
X95059999Y-97640001D01*
X95175724Y-97734974D01*
X95186391Y-97740676D01*
X95253169Y-97865608D01*
X95357394Y-97992606D01*
X95484392Y-98096831D01*
X95629284Y-98174278D01*
X95786500Y-98221969D01*
X95950000Y-98238072D01*
X97050000Y-98238072D01*
X97213500Y-98221969D01*
X97370716Y-98174278D01*
X97515608Y-98096831D01*
X97642606Y-97992606D01*
X97746831Y-97865608D01*
X97824278Y-97720716D01*
X97871969Y-97563500D01*
X97888072Y-97400000D01*
X97888072Y-96800000D01*
X97871969Y-96636500D01*
X97824278Y-96479284D01*
X97755174Y-96350000D01*
X97824278Y-96220716D01*
X97871969Y-96063500D01*
X97888072Y-95900000D01*
X97888072Y-95300000D01*
X97871969Y-95136500D01*
X97824278Y-94979284D01*
X97755174Y-94850000D01*
X97824278Y-94720716D01*
X97871969Y-94563500D01*
X97888072Y-94400000D01*
X97888072Y-93800000D01*
X97871969Y-93636500D01*
X97824278Y-93479284D01*
X97755174Y-93350000D01*
X97824278Y-93220716D01*
X97871969Y-93063500D01*
X97888072Y-92900000D01*
X97888072Y-92400000D01*
X102111928Y-92400000D01*
X102115000Y-92614250D01*
X102273750Y-92773000D01*
X103373000Y-92773000D01*
X103373000Y-91923750D01*
X103627000Y-91923750D01*
X103627000Y-92773000D01*
X104726250Y-92773000D01*
X104885000Y-92614250D01*
X104888072Y-92400000D01*
X104875812Y-92275518D01*
X104839502Y-92155820D01*
X104780537Y-92045506D01*
X104701185Y-91948815D01*
X104604494Y-91869463D01*
X104494180Y-91810498D01*
X104374482Y-91774188D01*
X104250000Y-91761928D01*
X103785750Y-91765000D01*
X103627000Y-91923750D01*
X103373000Y-91923750D01*
X103214250Y-91765000D01*
X102750000Y-91761928D01*
X102625518Y-91774188D01*
X102505820Y-91810498D01*
X102395506Y-91869463D01*
X102298815Y-91948815D01*
X102219463Y-92045506D01*
X102160498Y-92155820D01*
X102124188Y-92275518D01*
X102111928Y-92400000D01*
X97888072Y-92400000D01*
X97888072Y-92300000D01*
X97871969Y-92136500D01*
X97824278Y-91979284D01*
X97746831Y-91834392D01*
X97642606Y-91707394D01*
X97515608Y-91603169D01*
X97509679Y-91600000D01*
X97515608Y-91596831D01*
X97642606Y-91492606D01*
X97746831Y-91365608D01*
X97824278Y-91220716D01*
X97871969Y-91063500D01*
X97888072Y-90900000D01*
X97888072Y-90300000D01*
X97880525Y-90223375D01*
X97938967Y-90235000D01*
X98261033Y-90235000D01*
X98576912Y-90172168D01*
X98874463Y-90048918D01*
X99142252Y-89869987D01*
X99369987Y-89642252D01*
X99548918Y-89374463D01*
X99672168Y-89076912D01*
X99735000Y-88761033D01*
X99735000Y-88438967D01*
X100265000Y-88438967D01*
X100265000Y-88761033D01*
X100327832Y-89076912D01*
X100451082Y-89374463D01*
X100630013Y-89642252D01*
X100857748Y-89869987D01*
X101125537Y-90048918D01*
X101423088Y-90172168D01*
X101738967Y-90235000D01*
X102061033Y-90235000D01*
X102376912Y-90172168D01*
X102674463Y-90048918D01*
X102942252Y-89869987D01*
X103169987Y-89642252D01*
X103348918Y-89374463D01*
X103410827Y-89225000D01*
X104411928Y-89225000D01*
X104424188Y-89349482D01*
X104460498Y-89469180D01*
X104519463Y-89579494D01*
X104598815Y-89676185D01*
X104695506Y-89755537D01*
X104805820Y-89814502D01*
X104925518Y-89850812D01*
X105050000Y-89863072D01*
X105264250Y-89860000D01*
X105423000Y-89701250D01*
X105423000Y-88627000D01*
X104573750Y-88627000D01*
X104415000Y-88785750D01*
X104411928Y-89225000D01*
X103410827Y-89225000D01*
X103472168Y-89076912D01*
X103535000Y-88761033D01*
X103535000Y-88438967D01*
X103472168Y-88123088D01*
X103348918Y-87825537D01*
X103315151Y-87775000D01*
X104411928Y-87775000D01*
X104415000Y-88214250D01*
X104573750Y-88373000D01*
X105423000Y-88373000D01*
X105423000Y-87298750D01*
X105264250Y-87140000D01*
X105050000Y-87136928D01*
X104925518Y-87149188D01*
X104805820Y-87185498D01*
X104695506Y-87244463D01*
X104598815Y-87323815D01*
X104519463Y-87420506D01*
X104460498Y-87530820D01*
X104424188Y-87650518D01*
X104411928Y-87775000D01*
X103315151Y-87775000D01*
X103169987Y-87557748D01*
X102942252Y-87330013D01*
X102674463Y-87151082D01*
X102376912Y-87027832D01*
X102061033Y-86965000D01*
X101738967Y-86965000D01*
X101423088Y-87027832D01*
X101125537Y-87151082D01*
X100857748Y-87330013D01*
X100630013Y-87557748D01*
X100451082Y-87825537D01*
X100327832Y-88123088D01*
X100265000Y-88438967D01*
X99735000Y-88438967D01*
X99672168Y-88123088D01*
X99548918Y-87825537D01*
X99369987Y-87557748D01*
X99142252Y-87330013D01*
X98874463Y-87151082D01*
X98576912Y-87027832D01*
X98261033Y-86965000D01*
X98109801Y-86965000D01*
X103051003Y-82023799D01*
X103080001Y-82000001D01*
X103174974Y-81884276D01*
X103245546Y-81752247D01*
X103289003Y-81608986D01*
X103300000Y-81497333D01*
X103300000Y-81497324D01*
X103303676Y-81460001D01*
X103300000Y-81422678D01*
X103300000Y-81278178D01*
X103486632Y-81153475D01*
X103693475Y-80946632D01*
X103815195Y-80764466D01*
X103884822Y-80881355D01*
X104079731Y-81097588D01*
X104313080Y-81271641D01*
X104575901Y-81396825D01*
X104723110Y-81441476D01*
X104953000Y-81320155D01*
X104953000Y-80127000D01*
X105207000Y-80127000D01*
X105207000Y-81320155D01*
X105436890Y-81441476D01*
X105584099Y-81396825D01*
X105846920Y-81271641D01*
X106080269Y-81097588D01*
X106275178Y-80881355D01*
X106424157Y-80631252D01*
X106521481Y-80356891D01*
X106400814Y-80127000D01*
X105207000Y-80127000D01*
X104953000Y-80127000D01*
X104933000Y-80127000D01*
X104933000Y-79873000D01*
X104953000Y-79873000D01*
X104953000Y-78679845D01*
X105207000Y-78679845D01*
X105207000Y-79873000D01*
X106400814Y-79873000D01*
X106521481Y-79643109D01*
X106424157Y-79368748D01*
X106275178Y-79118645D01*
X106080269Y-78902412D01*
X105846920Y-78728359D01*
X105584099Y-78603175D01*
X105436890Y-78558524D01*
X105207000Y-78679845D01*
X104953000Y-78679845D01*
X104723110Y-78558524D01*
X104575901Y-78603175D01*
X104313080Y-78728359D01*
X104079731Y-78902412D01*
X103884822Y-79118645D01*
X103815195Y-79235534D01*
X103693475Y-79053368D01*
X103486632Y-78846525D01*
X103243411Y-78684010D01*
X102973158Y-78572068D01*
X102686260Y-78515000D01*
X102393740Y-78515000D01*
X102106842Y-78572068D01*
X101836589Y-78684010D01*
X101593368Y-78846525D01*
X101386525Y-79053368D01*
X101270000Y-79227760D01*
X101153475Y-79053368D01*
X100946632Y-78846525D01*
X100703411Y-78684010D01*
X100433158Y-78572068D01*
X100146260Y-78515000D01*
X99853740Y-78515000D01*
X99566842Y-78572068D01*
X99296589Y-78684010D01*
X99053368Y-78846525D01*
X98846525Y-79053368D01*
X98730000Y-79227760D01*
X98613475Y-79053368D01*
X98406632Y-78846525D01*
X98163411Y-78684010D01*
X97893158Y-78572068D01*
X97606260Y-78515000D01*
X97313740Y-78515000D01*
X97026842Y-78572068D01*
X96756589Y-78684010D01*
X96513368Y-78846525D01*
X96381513Y-78978380D01*
X96359502Y-78905820D01*
X96354715Y-78896864D01*
X96866579Y-78385000D01*
X106133422Y-78385000D01*
X106565000Y-78816579D01*
X106565001Y-85456514D01*
X106565000Y-85456524D01*
X106565000Y-87401574D01*
X106501185Y-87323815D01*
X106404494Y-87244463D01*
X106294180Y-87185498D01*
X106174482Y-87149188D01*
X106050000Y-87136928D01*
X105835750Y-87140000D01*
X105677000Y-87298750D01*
X105677000Y-88373000D01*
X105697000Y-88373000D01*
X105697000Y-88627000D01*
X105677000Y-88627000D01*
X105677000Y-89701250D01*
X105835750Y-89860000D01*
X106050000Y-89863072D01*
X106174482Y-89850812D01*
X106294180Y-89814502D01*
X106404494Y-89755537D01*
X106501185Y-89676185D01*
X106565001Y-89598425D01*
X106565001Y-92433420D01*
X105483421Y-93515000D01*
X104876746Y-93515000D01*
X104888072Y-93400000D01*
X104885000Y-93185750D01*
X104726250Y-93027000D01*
X103627000Y-93027000D01*
X103627000Y-93047000D01*
X103373000Y-93047000D01*
X103373000Y-93027000D01*
X102273750Y-93027000D01*
X102115000Y-93185750D01*
X102111928Y-93400000D01*
X102124188Y-93524482D01*
X102160498Y-93644180D01*
X102204218Y-93725973D01*
X102175722Y-93779284D01*
X102128031Y-93936500D01*
X102111928Y-94100000D01*
X102111928Y-94700000D01*
X102128031Y-94863500D01*
X102175722Y-95020716D01*
X102244826Y-95150000D01*
X102175722Y-95279284D01*
X102128031Y-95436500D01*
X102111928Y-95600000D01*
X102111928Y-96200000D01*
X102128031Y-96363500D01*
X102175722Y-96520716D01*
X102253169Y-96665608D01*
X102357394Y-96792606D01*
X102484392Y-96896831D01*
X102629284Y-96974278D01*
X102786500Y-97021969D01*
X102950000Y-97038072D01*
X104050000Y-97038072D01*
X104213500Y-97021969D01*
X104370716Y-96974278D01*
X104515608Y-96896831D01*
X104642606Y-96792606D01*
X104709152Y-96711519D01*
X104844059Y-96639411D01*
X104978817Y-96528817D01*
X105006534Y-96495044D01*
X106445046Y-95056532D01*
X106478817Y-95028817D01*
X106506532Y-94995047D01*
X108045049Y-93456530D01*
X108078817Y-93428817D01*
X108107019Y-93394454D01*
X108189410Y-93294060D01*
X108206585Y-93261928D01*
X108271589Y-93140313D01*
X108322195Y-92973490D01*
X108335000Y-92843477D01*
X108335000Y-92843467D01*
X108339281Y-92800001D01*
X108335000Y-92756534D01*
X108335000Y-89594386D01*
X108438405Y-89468386D01*
X108520472Y-89314850D01*
X108571008Y-89148254D01*
X108588072Y-88975000D01*
X108588072Y-88025000D01*
X108571008Y-87851746D01*
X108520472Y-87685150D01*
X108438405Y-87531614D01*
X108335000Y-87405614D01*
X108335000Y-78493469D01*
X108339281Y-78450000D01*
X108335000Y-78406531D01*
X108335000Y-78406523D01*
X108322195Y-78276510D01*
X108271589Y-78109687D01*
X108189411Y-77955941D01*
X108078817Y-77821183D01*
X108045050Y-77793471D01*
X107156534Y-76904956D01*
X107128817Y-76871183D01*
X106994059Y-76760589D01*
X106840313Y-76678411D01*
X106673490Y-76627805D01*
X106543477Y-76615000D01*
X106543469Y-76615000D01*
X106500000Y-76610719D01*
X106456531Y-76615000D01*
X96543465Y-76615000D01*
X96499999Y-76610719D01*
X96456533Y-76615000D01*
X96456523Y-76615000D01*
X96326510Y-76627805D01*
X96159687Y-76678411D01*
X96005941Y-76760589D01*
X96005939Y-76760590D01*
X96005940Y-76760590D01*
X95904953Y-76843468D01*
X95904951Y-76843470D01*
X95871183Y-76871183D01*
X95843470Y-76904951D01*
X94324951Y-78423471D01*
X94291184Y-78451183D01*
X94263471Y-78484951D01*
X94263468Y-78484954D01*
X94241331Y-78511928D01*
X94070000Y-78511928D01*
X93945518Y-78524188D01*
X93825820Y-78560498D01*
X93715506Y-78619463D01*
X93618815Y-78698815D01*
X93539463Y-78795506D01*
X93480498Y-78905820D01*
X93444188Y-79025518D01*
X93431928Y-79150000D01*
X93431928Y-80850000D01*
X93444188Y-80974482D01*
X93480498Y-81094180D01*
X93539463Y-81204494D01*
X93618815Y-81301185D01*
X93715506Y-81380537D01*
X93825820Y-81439502D01*
X93945518Y-81475812D01*
X94070000Y-81488072D01*
X95770000Y-81488072D01*
X95894482Y-81475812D01*
X96014180Y-81439502D01*
X96124494Y-81380537D01*
X96221185Y-81301185D01*
X96300537Y-81204494D01*
X96359502Y-81094180D01*
X96381513Y-81021620D01*
X96513368Y-81153475D01*
X96700000Y-81278179D01*
X96700001Y-84145197D01*
X93489003Y-87356196D01*
X93459999Y-87379999D01*
X93404871Y-87447174D01*
X93365026Y-87495724D01*
X93294455Y-87627753D01*
X93294454Y-87627754D01*
X93250997Y-87771015D01*
X93240000Y-87882668D01*
X93240000Y-87882678D01*
X93236324Y-87920000D01*
X85660000Y-87920000D01*
X85660000Y-74032278D01*
X85726714Y-73351874D01*
X85914943Y-72728428D01*
X86220681Y-72153421D01*
X86632279Y-71648753D01*
X87134067Y-71233638D01*
X87706924Y-70923895D01*
X88329039Y-70731318D01*
X89007584Y-70660000D01*
X110967722Y-70660000D01*
X111648126Y-70726714D01*
G37*
%TD.AperFunction*%
%TD*%
M02*
